# File created by Blade
# Date/Time:  Wed Jan 21 17:10:37 2015
# Frame Rate: 120.000 fps
#------------------------------------------------------
:FULLY-SPECIFIED
:DEGREES
473
root 20.033357 3.513213 -12.059117 -236.953904 4.631813 -189.553927
Spine 59.253754 12.410574 -9.710930
Head 1.189813 6.252963 -2.510462
LeftShoulder 13.391006 -37.717162 -12.315663
LeftArm 20.922400 19.438498 -80.668503
LeftForeArm -64.952822 -0.000000 20.346629
LeftHand -1.171969 0.000000 -3.149043
LeftHandThumb1 -26.253704 0.000000 33.147579
RightShoulder 18.296451 9.747706 -26.320723
RightArm 56.789703 -5.079797 4.821966
RightForeArm 17.757998 -0.000000 40.263435
RightHand -1.229058 -0.000000 15.303230
RightHandThumb1 -24.326973 -0.000000 -32.862282
LeftUpLeg -33.021123 37.173595 -3.223708
LeftLeg -2.849847 -0.000000 0.000000
LeftFoot 18.118568 38.896042 -2.312819
LeftToeBase 18.361940 -0.000000 -0.000000
RightUpLeg -110.193085 -3.792119 54.036035
RightLeg 109.980438 -0.000000 -0.000000
RightFoot 20.039253 -36.471516 2.766392
RightToeBase 21.265216 -0.000000 -0.000000
474
root 20.054299 3.516760 -12.060262 -236.954168 4.569321 -189.797943
Spine 59.284563 12.664273 -9.759181
Head 1.232002 6.187354 -2.687376
LeftShoulder 13.443820 -37.877386 -12.499102
LeftArm 21.030373 18.515797 -80.972975
LeftForeArm -64.350970 0.000000 19.936064
LeftHand 0.018390 -0.000000 -3.840526
LeftHandThumb1 -26.253704 0.000000 33.147579
RightShoulder 18.727428 9.718798 -26.551702
RightArm 57.760152 -5.625351 4.621899
RightForeArm 18.994553 -0.000000 39.826549
RightHand -1.221757 0.000000 15.906104
RightHandThumb1 -24.326973 -0.000000 -32.862282
LeftUpLeg -32.798500 36.993328 -3.106045
LeftLeg -2.901726 -0.000000 0.000000
LeftFoot 17.985602 38.970405 -2.275091
LeftToeBase 18.218572 -0.000000 -0.000000
RightUpLeg -110.187413 -3.513991 53.929115
RightLeg 110.012820 -0.000000 -0.000000
RightFoot 19.753454 -36.165054 3.373751
RightToeBase 21.265274 -0.000000 -0.000000
475
root 20.076686 3.524027 -12.058671 -236.952716 4.507284 -190.064318
Spine 59.300431 12.960936 -9.826458
Head 1.314604 6.099038 -2.805106
LeftShoulder 13.481666 -38.006932 -12.639031
LeftArm 21.188508 17.894927 -81.148370
LeftForeArm -64.540025 -0.000000 19.493499
LeftHand 0.836927 -0.000000 -4.546013
LeftHandThumb1 -26.253704 0.000000 33.147579
RightShoulder 19.221968 10.048302 -26.775994
RightArm 58.495963 -6.530396 4.840227
RightForeArm 20.221785 0.000000 39.526451
RightHand -1.092744 -0.000000 16.559335
RightHandThumb1 -24.326973 -0.000000 -32.862282
LeftUpLeg -32.595405 36.891343 -3.053722
LeftLeg -2.967745 -0.000000 0.000000
LeftFoot 17.861670 39.012912 -2.307199
LeftToeBase 18.144723 -0.000000 -0.000000
RightUpLeg -110.172719 -3.221447 53.922780
RightLeg 110.061983 -0.000000 -0.000000
RightFoot 19.443015 -36.279818 3.831859
RightToeBase 21.620371 -0.000000 -0.000000
476
root 20.099499 3.530267 -12.057462 -236.944912 4.450030 -190.290978
Spine 59.332026 13.207724 -9.894994
Head 1.320541 6.046099 -2.913878
LeftShoulder 13.401129 -38.177650 -12.685852
LeftArm 21.295907 17.409235 -81.337540
LeftForeArm -65.129934 -0.000000 19.145429
LeftHand 1.235917 -0.000000 -5.225750
LeftHandThumb1 -26.253704 0.000000 33.147579
RightShoulder 19.797319 10.779688 -27.060890
RightArm 58.919913 -7.792678 5.557788
RightForeArm 21.373543 -0.000000 39.513390
RightHand -1.238508 0.000000 17.006482
RightHandThumb1 -24.326973 -0.000000 -32.862282
LeftUpLeg -32.416020 36.791888 -3.013306
LeftLeg -3.041956 -0.000000 0.000000
LeftFoot 17.758402 39.011525 -2.309918
LeftToeBase 18.102471 -0.000000 -0.000000
RightUpLeg -110.163280 -3.009265 53.802889
RightLeg 110.120894 -0.000000 -0.000000
RightFoot 19.699433 -35.774471 3.805103
RightToeBase 21.551055 -0.000000 -0.000000
477
root 20.115745 3.538334 -12.059787 -236.992777 4.336759 -190.450689
Spine 59.420629 13.425876 -9.889623
Head 1.447138 5.945202 -2.905031
LeftShoulder 13.519107 -38.230330 -12.792005
LeftArm 21.368555 16.896983 -81.470357
LeftForeArm -65.757047 -0.000000 18.908221
LeftHand 1.318139 0.000000 -5.639451
LeftHandThumb1 -26.253704 0.000000 33.147579
RightShoulder 20.343814 11.526550 -27.235316
RightArm 59.166859 -9.155677 6.242868
RightForeArm 22.429959 -0.000000 39.654042
RightHand -1.302187 0.000000 17.620902
RightHandThumb1 -24.326973 -0.000000 -32.862282
LeftUpLeg -32.174132 36.583274 -2.927749
LeftLeg -3.071662 -0.000000 0.000000
LeftFoot 17.647514 38.993739 -2.291123
LeftToeBase 18.063661 -0.000000 -0.000000
RightUpLeg -110.213359 -2.935500 53.662438
RightLeg 110.249986 -0.000000 -0.000000
RightFoot 19.831875 -35.437386 4.029975
RightToeBase 21.106297 -0.000000 -0.000000
478
root 20.129689 3.541731 -12.059277 -236.983618 4.245630 -190.592929
Spine 59.482915 13.608000 -9.837263
Head 1.513912 5.847652 -2.975723
LeftShoulder 13.558391 -38.320439 -12.887778
LeftArm 21.432697 16.585164 -81.600838
LeftForeArm -66.401010 0.000000 18.625812
LeftHand 1.312346 -0.000000 -6.135455
LeftHandThumb1 -26.253704 0.000000 33.147579
RightShoulder 20.626109 11.393609 -27.444478
RightArm 59.831499 -9.639448 6.344954
RightForeArm 23.837301 -0.000000 39.632777
RightHand -1.297263 -0.000000 18.444453
RightHandThumb1 -24.326973 -0.000000 -32.862282
LeftUpLeg -32.031465 36.329701 -2.845730
LeftLeg -3.040798 -0.000000 0.000000
LeftFoot 17.557959 38.979109 -2.128510
LeftToeBase 18.219775 -0.000000 -0.000000
RightUpLeg -110.244200 -2.809844 53.533910
RightLeg 110.321920 -0.000000 -0.000000
RightFoot 19.977190 -35.257749 4.064039
RightToeBase 21.218844 -0.000000 -0.000000
479
root 20.138359 3.547499 -12.057377 -237.005185 4.132330 -190.770659
Spine 59.573602 13.850498 -9.794853
Head 1.605663 5.696609 -2.972764
LeftShoulder 13.699675 -38.389171 -13.001528
LeftArm 21.451852 16.348630 -81.699988
LeftForeArm -67.103822 -0.000000 18.394067
LeftHand 1.376592 -0.000000 -6.543052
LeftHandThumb1 -26.253704 0.000000 33.147579
RightShoulder 20.924572 11.985469 -27.463828
RightArm 60.225813 -10.935066 6.707774
RightForeArm 24.884013 -0.000000 39.773051
RightHand -1.271933 0.000000 19.095357
RightHandThumb1 -24.326973 -0.000000 -32.862282
LeftUpLeg -31.866342 36.175019 -2.862168
LeftLeg -3.066437 -0.000000 0.000000
LeftFoot 17.495578 38.894246 -2.026598
LeftToeBase 18.246756 -0.000000 -0.000000
RightUpLeg -110.239741 -2.729273 53.380722
RightLeg 110.402138 -0.000000 -0.000000
RightFoot 20.214597 -35.135333 3.943985
RightToeBase 21.555710 -0.000000 -0.000000
480
root 20.143363 3.554065 -12.055330 -237.008061 3.996522 -190.910922
Spine 59.660180 14.025780 -9.748489
Head 1.684966 5.574979 -2.980236
LeftShoulder 13.805068 -38.439680 -13.118021
LeftArm 21.457026 16.265518 -81.717145
LeftForeArm -67.593415 -0.000000 18.232730
LeftHand 1.626596 -0.000000 -7.157307
LeftHandThumb1 -26.253704 0.000000 33.147579
RightShoulder 21.126393 12.157656 -27.484837
RightArm 60.752317 -11.818993 6.841297
RightForeArm 25.843572 -0.000000 39.952228
RightHand -1.155801 0.000000 19.771320
RightHandThumb1 -24.326973 -0.000000 -32.862282
LeftUpLeg -31.753986 36.055936 -2.968592
LeftLeg -3.127300 -0.000000 0.000000
LeftFoot 17.446760 38.751684 -2.014707
LeftToeBase 18.251793 -0.000000 -0.000000
RightUpLeg -110.321784 -2.684146 53.257400
RightLeg 110.470984 -0.000000 -0.000000
RightFoot 20.505925 -35.455871 4.508185
RightToeBase 20.423277 -0.000000 -0.000000
481
root 20.145573 3.557485 -12.051713 -236.989003 3.876386 -191.025650
Spine 59.736677 14.184096 -9.664392
Head 1.757572 5.437044 -2.972941
LeftShoulder 13.896443 -38.462398 -13.195554
LeftArm 21.456102 16.225502 -81.721635
LeftForeArm -67.611496 -0.000000 18.050750
LeftHand 1.797216 -0.000000 -8.067070
LeftHandThumb1 -26.253704 0.000000 33.147579
RightShoulder 21.257887 12.205188 -27.545401
RightArm 61.179359 -12.529911 7.155774
RightForeArm 26.753053 -0.000000 40.258237
RightHand -1.004049 0.000000 20.647629
RightHandThumb1 -24.326973 -0.000000 -32.862282
LeftUpLeg -31.666316 35.855391 -3.019327
LeftLeg -3.137164 -0.000000 0.000000
LeftFoot 17.387649 38.644360 -1.978377
LeftToeBase 18.222946 -0.000000 -0.000000
RightUpLeg -110.353900 -2.655877 53.094352
RightLeg 110.530794 -0.000000 -0.000000
RightFoot 20.922370 -35.324434 3.938168
RightToeBase 20.974583 -0.000000 -0.000000
482
root 20.151300 3.559681 -12.046480 -236.972034 3.744187 -191.096905
Spine 59.827519 14.312331 -9.563130
Head 1.827045 5.310590 -2.928042
LeftShoulder 13.971303 -38.455841 -13.239550
LeftArm 21.493222 16.435901 -81.586006
LeftForeArm -67.697996 -0.000000 17.983894
LeftHand 1.998978 -0.000000 -8.675527
LeftHandThumb1 -26.253704 0.000000 33.147579
RightShoulder 21.344843 12.404958 -27.529873
RightArm 61.521625 -13.408353 7.594542
RightForeArm 27.491085 -0.000000 40.622462
RightHand -0.815308 0.000000 21.541969
RightHandThumb1 -24.326973 -0.000000 -32.862282
LeftUpLeg -31.584883 35.614042 -3.040873
LeftLeg -3.123295 -0.000000 0.000000
LeftFoot 17.341615 38.539620 -1.975835
LeftToeBase 18.243591 -0.000000 -0.000000
RightUpLeg -110.391962 -2.681224 52.933055
RightLeg 110.486920 -0.000000 -0.000000
RightFoot 21.494031 -35.337721 3.473294
RightToeBase 21.392702 -0.000000 -0.000000
